# xmcd CD database file
#
# Track frame offsets:
#	150
#	11396
#	30792
#	55338
#	68839
#	80277
#	107526
#	132113
#	146036
#	157513
#	171506
#	184281
#	201164
#	221163
#	231531
#	253084
#	270484
#
# Disc length: 3803 seconds
#
# Revision: 0
# Processed by: cddbd v1.5.2PL0 Copyright (c) Steve Scherf et al.
# Submitted via: CDex 1.51
#
DISCID=e90ed911
DTITLE=Lambert, Hendricks and Ross - Seven Classic Albums (Remaster)
DYEAR=2014
DGENRE=Jazz
TTITLE0=In The Lurch (1962, The Real Ambassadors)
TTITLE1=One Moment Worth Years (1962, The Real Ambassadors)
TTITLE2=They Say I Look Like God (1962, The Real Ambassadors)
TTITLE3=I Didn't Know Until You Told Me (1962, The Real Ambassadors)
TTITLE4=Since Love Had It's Way (1962, The Real Ambassadors)
TTITLE5=Swing Bells - Blow Satchmo - Finale (1962, The Real Ambassadors)
TTITLE6=Come On Home (1962, High Flying)
TTITLE7=The New ABC (1962, High Flying)
TTITLE8=Farmer's Market (1962, High Flying)
TTITLE9=Cookin' At The Continental (1962, High Flying)
TTITLE10=With Malice Towards None (1962, High Flying)
TTITLE11=Hi-Fly (1962, High Flying)
TTITLE12=Home Cookin' (1962, High Flying)
TTITLE13=Haloween Spooks (1962, High Flying)
TTITLE14=Popity Pop (1962, High Flying)
TTITLE15=Blue (1962, High Flying)
TTITLE16=Mr P.C. (1962, High Flying)
EXTD=YEAR: 2014
EXTT0=
EXTT1=
EXTT2=
EXTT3=
EXTT4=
EXTT5=
EXTT6=
EXTT7=
EXTT8=
EXTT9=
EXTT10=
EXTT11=
EXTT12=
EXTT13=
EXTT14=
EXTT15=
EXTT16=
PLAYORDER=
